# xmcd
#
# Track frame offsets: 
#        150
#        16071
#        32992
#        47678
#        60365
#        75530
#        93967
#        108534
#        123087
#        135768
#        151938
#        168374
#        185395
#        201077
#
# Disc length: 2911 seconds
#
# Revision: 0
# Processed by: cddbd v1.5.2PL0 Copyright (c) Steve Scherf et al.
# Submitted via: ExactAudioCopyFreeDBPlugin 1.0
#
DISCID=9f0b5d0e
DTITLE=Harpoonist and The Axe Murderer - A Real Fine Mess
DYEAR=2014
DGENRE=Blues
TTITLE0=Black and Blue
TTITLE1=Do Whatcha
TTITLE2=Tea for Two
TTITLE3=Mama's In The Backseat
TTITLE4=Closer to Death
TTITLE5=Feel Me Now
TTITLE6=Don't Make 'em Like they Used To
TTITLE7=My Paradise
TTITLE8=In And Out Of Love
TTITLE9=Sweat This Pain
TTITLE10=Cry a Little
TTITLE11=In The End
TTITLE12=Act Your Age
TTITLE13=A Real Fine Noise
EXTD=
EXTT0=
EXTT1=
EXTT2=
EXTT3=
EXTT4=
EXTT5=
EXTT6=
EXTT7=
EXTT8=
EXTT9=
EXTT10=
EXTT11=
EXTT12=
EXTT13=
PLAYORDER=
